<svg id="Layer_1" data-name="Layer 1" xmlns="http://www.w3.org/2000/svg" viewBox="0 0 1743 635.95"><title>dad_logo</title><path d="M270.52,30.08c.44-10.71,9.59-19,20.31-19l286.78.24c11.62-.67,21.31,3.24,24.69,13.11a19.77,19.77,0,0,0,1.41,3.17l13.95,25.19a20.06,20.06,0,0,1-2.11,22.8A20.35,20.35,0,0,1,605.4,82L324.67,157.19a20.4,20.4,0,0,1-24.91-14.38L271.2,36.2A20.34,20.34,0,0,1,270.52,30.08Z" style="fill:#fcdb99"/><path d="M593.86,628.25a26.61,26.61,0,0,1-17.5-6.57L376.36,447a32.37,32.37,0,0,1-10-16L283.55,121.91A41.6,41.6,0,0,1,312.95,71L572.62,1.42a41.55,41.55,0,0,1,50.91,29.39L705,335a32.39,32.39,0,0,1-.54,18.6L619.12,610a26.62,26.62,0,0,1-18.24,17.28l-.28.07A26.26,26.26,0,0,1,593.86,628.25Zm-62.43-88.9a98.8,98.8,0,0,1,84.43-22.28l38.92-116.87q-1,.31-2.05.58l-.2.05a70.67,70.67,0,0,1-18.06,2.37,69.66,69.66,0,0,1-36.41-10.34q-2.74-1.68-5.31-3.59-.68,1.39-1.42,2.75a69.36,69.36,0,0,1-43.19,34.13l-.19.05a69.54,69.54,0,0,1-54.32-7.72l-.35-.22q-1.76-1.07-3.44-2.23a71.12,71.12,0,0,1-3.2,6.69,69.35,69.35,0,0,1-43.18,34.13L440.6,447l2.65,9.9q-2.46.66-4.95,1.14Zm-125.73-118A37.43,37.43,0,0,0,425,426.85a37.93,37.93,0,0,0,9.81-1.3,37.52,37.52,0,0,0,26.54-45.94L382.7,85.92l-61.34,16.44a9.12,9.12,0,0,0-6.44,11.15l79.82,297.92a37.4,37.4,0,0,0,10.71,9.81Zm104.71-30.7a37.31,37.31,0,0,0,19.32,5.46,38,38,0,0,0,9.83-1.31,37.51,37.51,0,0,0,26.52-45.93L488,57.69,415.42,77.15l78,291a37.41,37.41,0,0,0,16.72,22.33Zm88-47.78a37.6,37.6,0,0,0,36.11,27.82,38,38,0,0,0,9.73-1.28,37.21,37.21,0,0,0,23.25-18.17l.17-.31A37.11,37.11,0,0,0,672,337.15L592.18,39.22A9.09,9.09,0,0,0,581,32.78L519.68,49.22Z" style="fill:#3e2900"/><path d="M649.9,390.92a59.82,59.82,0,0,1-61.61-20,59.81,59.81,0,0,1-42.85,45.34l-.15,0a59.25,59.25,0,0,1-46.38-6.59l-.17-.11a59.19,59.19,0,0,1-14.41-12.2A59.83,59.83,0,0,1,440.77,447l-.16,0a59.37,59.37,0,0,1-30.3.19L531.53,553l5.38-4.86a88.53,88.53,0,0,1,81.47-20l4.22,1.1,49.91-149.88a59.6,59.6,0,0,1-22.44,11.5Z" style="fill:#fcdb99"/><path d="M518,129.79l53.94,201.32q6.09-1.26,12-2.4L529.5,125.48Q523.84,127.67,518,129.79Z" style="fill:none"/><path d="M412.37,157l54.44,203.19Q473,358,479.5,355.91L425.61,154.78Q418.91,156,412.37,157Z" style="fill:none"/><path d="M412.37,157c-37.24,5.88-70.47,6.93-95.5,3.37l64,238.69c20.41-12.75,50.32-26.36,86-38.88Z" style="fill:#f7a600"/><path d="M584,328.72c36.92-7,69.56-10.34,93.8-9.71l-64-238.91c-19.61,15.74-48.9,31.65-84.25,45.38Z" style="fill:#f7a600"/><path d="M470.92,144.53c-15.47,4.14-30.65,7.55-45.31,10.25L479.5,355.91c14.62-4.84,30.08-9.47,46.14-13.77,15.86-4.25,31.36-7.93,46.27-11L518,129.79C503.14,135.16,487.38,140.12,470.92,144.53Z" style="fill:#f7a600"/><path d="M578.37,22.88,507.12,42l22.38,83.51c35.35-13.73,64.63-29.63,84.25-45.38L602.08,36.56A19.37,19.37,0,0,0,578.37,22.88Z" style="fill:#fcdb99"/><path d="M518,129.79,495.29,45.14,402.87,69.9l22.74,84.88c14.67-2.7,29.85-6.11,45.31-10.25C487.38,140.12,503.14,135.16,518,129.79Z" style="fill:#fcdb99"/><path d="M389.94,73.36,318.7,92.45A19.37,19.37,0,0,0,305,116.16l11.86,44.25c25,3.56,58.26,2.51,95.5-3.37Z" style="fill:#fcdb99"/><path d="M400.23,430.06l.17.1a47.38,47.38,0,0,0,37.11,5.29l.13,0A47.77,47.77,0,0,0,471.29,377l-4.48-16.72c-35.67,12.51-65.58,26.12-86,38.88l4.48,16.72A47.84,47.84,0,0,0,400.23,430.06Z" style="fill:#fb700d"/><path d="M588.47,345.56a47.77,47.77,0,0,0,58.37,33.8l.13,0a47.3,47.3,0,0,0,29.47-23.11l.13-.23a47.6,47.6,0,0,0,5.8-19.74L677.76,319c-24.24-.63-56.88,2.66-93.8,9.71Z" style="fill:#fb700d"/><path d="M479.5,355.91l4,14.94a47.6,47.6,0,0,0,21.42,28.51l.17.1a47.32,47.32,0,0,0,37.11,5.29l.12,0A47.77,47.77,0,0,0,576,346.25l-4.06-15.14c-14.91,3.1-30.42,6.77-46.27,11C509.58,346.44,494.13,351.07,479.5,355.91Z" style="fill:#fb700d"/><rect x="268.89" y="11.26" width="41.01" height="143.52" rx="20.5" ry="20.5" style="fill:#fcdb99"/><path d="M289.4,296.61a20.56,20.56,0,0,0-20.5,20.5h0a20.5,20.5,0,1,0,41,0h0A20.56,20.56,0,0,0,289.4,296.61Z" style="fill:#fcdb99"/><rect x="268.89" y="183.87" width="41.01" height="88.85" rx="20.5" ry="20.5" style="fill:#fcdb99"/><rect x="505.66" y="591.44" width="104.87" height="41.01" rx="20.5" ry="20.5" style="fill:#3e2900"/><rect x="439.78" y="591.44" width="41.01" height="41.01" rx="20.5" ry="20.5" style="fill:#3e2900"/><rect y="591.44" width="412.44" height="41.01" rx="20.5" ry="20.5" style="fill:#3e2900"/><path d="M787.07,75.87c20.37,0,31.53,12.78,31.53,20.37,0,5-2.71,8-8,8-10.29,0-7.26-14.09-23.51-14.09-11.16,0-20.37,9.64-20.37,26.55,0,14.2,5.63,26.55,21,26.55,14,0,13.65-15,22.21-15,4.34,0,8.67,2.49,8.67,6.83,0,11.27-13.65,22.43-30.88,22.43-24.38,0-38.79-14-38.79-40.85C748.93,94.72,761.93,75.87,787.07,75.87Z" style="fill:#3e2900"/><path d="M830.08,88.11c0-7.91,4.12-10.4,10.41-10.4H882.2c5.2,0,9,1.52,9,7.15s-3.79,7.15-9,7.15H847.86v16.9H878c4.66,0,8.35,1.3,8.35,6.83s-3.69,6.83-8.35,6.83H847.86v18.85h35.22c5.2,0,9,1.52,9,7.15s-3.8,7.15-9,7.15H840.49c-6.29,0-10.41-2.49-10.41-10.4Z" style="fill:#3e2900"/><path d="M903.88,88.11c0-7.91,4.12-10.4,10.4-10.4h21.67c19.4,0,37.17,8.45,37.17,39,0,24.71-13.76,39-37.49,39H914.28c-6.29,0-10.4-2.49-10.4-10.4Zm17.77,53.31h15c14.19,0,18.74-12.68,18.74-24.71,0-15.39-5.85-24.7-18.85-24.7H921.65Z" style="fill:#3e2900"/><path d="M1000.86,81.72c1.52-4,4.34-5.42,8.67-5.42h4.23c4,0,7.58,1,9.53,6.5l21.45,59.7c.65,1.73,1.74,4.87,1.74,6.83,0,4.34-3.79,7.8-8.34,7.8-3.9,0-6.72-1.41-8-4.88l-4.55-13H997l-4.66,13c-1.19,3.47-3.69,4.88-7.91,4.88-4.87,0-8.24-3-8.24-7.8,0-2,1.09-5.09,1.74-6.83Zm10.73,13.87h-.22l-10.51,31.32h20.8Z" style="fill:#3e2900"/><path d="M1055.69,88.11c0-7.91,4.12-10.4,10.4-10.4h29.58c21.13,0,26.76,11.59,26.76,21.67,0,8.45-5,16.8-13.44,18.75v.22c9.1,1.3,10.73,7.91,10.73,15.82,0,9,2.38,12.35,2.38,16,0,4.12-4.23,6.93-8.34,6.93-9.75,0-10.51-9.43-10.51-12.57,0-13.65-2.49-19.18-12.24-19.18h-17.56v22.86c0,5.31-3.46,8.89-8.88,8.89s-8.89-3.58-8.89-8.89Zm17.77,24.27h17.77c6.72,0,13.44-1.73,13.44-10.51,0-8.34-5.09-10.51-12.9-10.51h-18.31Z" style="fill:#3e2900"/><path d="M1206.52,151c-1.84,5.09-5.31,6.18-10.84,6.18s-9-1.08-10.84-6.18L1163,89.41a15.36,15.36,0,0,1-1.09-5.2c0-6,4.55-7.91,9-7.91,4.77,0,7.37,2.49,9,7.8l16,53.09h.22l16.68-53.09c1.63-5.31,4.23-7.8,8.35-7.8,4.44,0,9,2,9,7.91a15.34,15.34,0,0,1-1.08,5.2Z" style="fill:#3e2900"/><path d="M1252.79,81.72c1.52-4,4.34-5.42,8.67-5.42h4.23c4,0,7.58,1,9.53,6.5l21.45,59.7c.65,1.73,1.74,4.87,1.74,6.83,0,4.34-3.79,7.8-8.34,7.8-3.9,0-6.72-1.41-8-4.88l-4.55-13h-28.61l-4.66,13c-1.19,3.47-3.69,4.88-7.91,4.88-4.87,0-8.24-3-8.24-7.8,0-2,1.09-5.09,1.74-6.83Zm10.73,13.87h-.22l-10.51,31.32h20.8Z" style="fill:#3e2900"/><path d="M1307.62,85.19c0-5.31,3.47-8.89,8.89-8.89s8.89,3.58,8.89,8.89v55.59h29.69c5.09,0,9.21,2.6,9.21,7.48s-4.12,7.48-9.21,7.48H1318c-6.29,0-10.4-2.49-10.4-10.4Z" style="fill:#3e2900"/><path d="M1373.83,85.19c0-5.31,3.47-8.89,8.89-8.89s8.89,3.58,8.89,8.89v55.59h29.69c5.09,0,9.21,2.6,9.21,7.48s-4.12,7.48-9.21,7.48h-37.05c-6.29,0-10.4-2.49-10.4-10.4Z" style="fill:#3e2900"/><path d="M1440.46,88.11c0-7.91,4.12-10.4,10.41-10.4h41.71c5.2,0,9,1.52,9,7.15s-3.79,7.15-9,7.15h-34.35v16.9h30.12c4.66,0,8.35,1.3,8.35,6.83s-3.69,6.83-8.35,6.83h-30.12v18.85h35.22c5.2,0,9,1.52,9,7.15s-3.8,7.15-9,7.15h-42.58c-6.29,0-10.41-2.49-10.41-10.4Z" style="fill:#3e2900"/><path d="M1530.29,125.28l-21.78-36.19a9.14,9.14,0,0,1-1.52-4.66c0-6.07,5.53-8.13,9-8.13,4.23,0,6.18,1.73,8,5.2l15.5,28.5,15.39-28.5c2.06-3.9,4-5.2,7.69-5.2,3.25,0,8.78,2.06,8.78,8.13a9.14,9.14,0,0,1-1.52,4.66l-21.78,36.19v23c0,5.31-3.47,8.89-8.89,8.89s-8.89-3.58-8.89-8.89Z" style="fill:#3e2900"/><path d="M748.93,226.21c0-19,9.86-24.92,24.92-24.92h51.92c46.47,0,89.05,20.25,89.05,93.46,0,59.19-33,93.46-89.83,93.46H773.85c-15.06,0-24.92-6-24.92-24.92Zm42.58,127.73h35.82c34,0,44.91-30.37,44.91-59.19,0-36.86-14-59.19-45.17-59.19H791.51Z" style="fill:#3e2900"/><path d="M948.47,228.71c0-19,9.86-24.92,24.92-24.92h70.87c50.62,0,64.12,27.78,64.12,51.92,0,20.25-11.94,40.24-32.19,44.91v.52c21.81,3.11,25.7,19,25.7,37.9,0,21.55,5.71,29.6,5.71,38.42,0,9.86-10.12,16.62-20,16.62-23.37,0-25.18-22.59-25.18-30.12,0-32.71-6-45.95-29.33-45.95H991v54.78c0,12.72-8.32,21.29-21.29,21.29s-21.29-8.57-21.29-21.29ZM991,286.86h42.57c16.1,0,32.19-4.15,32.19-25.18,0-20-12.2-25.18-30.89-25.18H991Z" style="fill:#3e2900"/><path d="M1140.85,221.7c0-12.72,8.31-21.29,21.29-21.29s21.28,8.57,21.28,21.29v151.1c0,12.72-8.3,21.29-21.28,21.29s-21.29-8.57-21.29-21.29Z" style="fill:#3e2900"/><path d="M1222.57,225.81c0-17.65,8.57-24.92,26.75-24.92,8.82,0,16.62,3.38,21.28,11.16l74.51,120.2h.52V221.4c0-13.76,7.79-20.51,20.51-20.51s20.51,6.75,20.51,20.51V368.08c0,16.88-7.27,26.48-25.18,26.48-13.5,0-17.92-2.86-23.37-11.43l-74-116.82h-.52V374c0,13.76-7.79,20.51-20.51,20.51s-20.51-6.75-20.51-20.51Z" style="fill:#3e2900"/><path d="M1425.34,222.17c0-12.72,8.31-21.29,21.29-21.29s21.29,8.57,21.29,21.29V284l67-73.73c4.94-5.19,9.35-9.35,16.88-9.35,10.12,0,20.25,6.23,20.25,17.13,0,6.49-3.38,10.91-7,14.54l-43.61,45.95,51.66,78.66c3.89,6,8,11.42,8,16.87,0,15.84-11.68,20.51-21.81,20.51-8.56,0-13.23-2.08-18.95-11.16l-49.07-75.81L1467.92,331v42.32c0,12.72-8.32,21.29-21.29,21.29s-21.29-8.57-21.29-21.29Z" style="fill:#3e2900"/><path d="M966.76,470.58c0-19,9.86-24.92,24.92-24.92h51.92c46.47,0,89.05,20.25,89.05,93.46,0,59.19-33,93.46-89.83,93.46H991.68c-15.06,0-24.92-6-24.92-24.92Zm42.57,127.73h35.83c34,0,44.91-30.37,44.91-59.19,0-36.86-14-59.19-45.17-59.19h-35.57Z" style="fill:#3e2900"/><path d="M1163.8,470.58c0-19,9.86-24.92,24.92-24.92h70.87c50.62,0,64.12,27.78,64.12,51.92,0,20.25-11.94,40.24-32.19,44.91V543c21.81,3.11,25.7,19,25.7,37.9,0,21.55,5.71,29.6,5.71,38.42,0,9.86-10.12,16.62-20,16.62-23.37,0-25.18-22.59-25.18-30.12,0-32.71-6-45.95-29.33-45.95h-42.06v54.78c0,12.72-8.3,21.29-21.28,21.29s-21.29-8.57-21.29-21.29Zm42.57,58.15H1249c16.1,0,32.2-4.15,32.2-25.18,0-20-12.2-25.18-30.9-25.18h-43.88Z" style="fill:#3e2900"/><path d="M1398,455.26c3.63-9.6,10.39-13,20.77-13h10.12c9.6,0,18.17,2.34,22.84,15.58l51.4,143c1.56,4.15,4.16,11.68,4.16,16.35,0,10.39-9.09,18.69-20,18.69-9.35,0-16.1-3.38-19.22-11.68l-10.9-31.15h-68.54l-11.16,31.15c-2.86,8.31-8.83,11.68-19,11.68-11.68,0-19.73-7.27-19.73-18.69,0-4.67,2.6-12.2,4.16-16.35Zm25.7,33.23h-.52l-25.18,75h49.85Z" style="fill:#3e2900"/><path d="M1704.32,615.7c-3.9,14.79-10.12,20.25-25.7,20.25-16.1,0-21.81-6.75-25.45-21l-27.77-114h-.52l-27.78,114c-3.37,14.28-9.35,21-25.44,21-15.58,0-21.81-5.46-25.7-20.25l-36.61-142a48,48,0,0,1-2.08-12.2c0-13,10.65-19.21,20.51-19.21,10.9,0,17.39,4.94,20,17.4L1573,583.77h.52l29.07-125.65c2.34-10.39,6.49-15.84,22.33-15.84,17.92,0,21.55,8.57,24.15,20.25l28.29,121.24h.52l25.44-124.09c2.59-12.46,9.09-17.4,19.21-17.4,9.87,0,20.51,6.23,20.51,19.21a48,48,0,0,1-2.08,12.2Z" style="fill:#3e2900"/><path d="M872.72,561.46c3.43-6.32,6.85-14.22,10.27-19,3.7-5,8.43-8.16,13.7-8.16,8.43,0,17.12,6.59,17.12,15,0,9.22-10,26.34-19.5,35.29l15.8,19a16.53,16.53,0,0,1,3.7,10.54c0,8.16-7.38,16.59-19.76,16.59-6.06,0-9.22-3.16-12.91-7.37L869,609.4c-17.11,16.59-37.4,22.92-61.1,22.92-41.35,0-59-27.13-59-52.42,0-28.18,18.17-46.62,41.35-58-9.47-10.8-18.17-21.86-18.17-37.66,0-30.29,24.5-46.88,52.68-46.88,41.61,0,54.52,26.07,54.52,45.83,0,20.81-14,38.19-32.92,47.41Zm-59.26-16.07c-15.28,8.43-26.07,17.91-26.07,31.34,0,15,9.74,25.55,25.81,25.55,16.33,0,26.86-9,34.77-16.07ZM824.52,509c8.69-5.27,21.6-12.64,21.6-27.4,0-9.48-8.43-17.38-19.76-17.38s-19.49,7.37-19.49,16.86C806.87,494.29,814.77,500.88,824.52,509Z" style="fill:#3e2900"/></svg>