<svg id="Layer_1" data-name="Layer 1" xmlns="http://www.w3.org/2000/svg" viewBox="0 0 670.89 464.61"><title>ddlogo_temp</title><path d="M283.89,134.51c-9.74.13-13.39-11.56-6.63-17.91,6.23-5.86,15.51-3.24,20.33,3a1.51,1.51,0,0,0,2.74-1.16c-2.61-11.82,4-26,16.23-29.29s26.1,6.66,26.18,19.57c0,1.37,2.18,2.19,2.8.76a14.68,14.68,0,0,1,22.21-6,17.81,17.81,0,0,1,6.72,10.77c.83,4.18-1,14.08-7.57,11.37-1.78-.73-2.56,2.17-.8,2.89,4.91,2,9.13-1.93,10.83-6.36,2.24-5.82,0-12.85-3.74-17.54-8.11-10.24-24.9-9-30.23,3.39l2.8.76C345.65,94.45,331,83,317.06,86c-14.62,3.07-22.67,19.43-19.62,33.29l2.74-1.16c-6.5-8.44-19.36-11.18-26.59-1.92-6.76,8.65-.86,21.49,10.3,21.34a1.5,1.5,0,0,0,0-3Z" style="fill:#fffbb1"/><path d="M308.87,138.32c3.46,8.14,8.37,18.81,18.36,20,6.83.83,14-2.91,14.75-10.17l-2.8.76c4.34,9.08,17.78,12,25.29,5,5.36-5,12.71-30.86-1-29.58-1.91.18-1.92,3.18,0,3,7.2-.67,4.33,11.61,3.49,15.28-1,4.5-2.92,8.85-7.28,10.93-6.48,3.09-14.79.31-17.88-6.16-.71-1.48-2.66-.56-2.8.76-.74,7.34-10.45,8.74-15.77,5.69-6.15-3.52-9.12-10.85-11.75-17.05-.75-1.77-3.34-.24-2.59,1.51Z" style="fill:#fffbb1"/><path d="M277.51,136.8l.21,82a1.5,1.5,0,0,0,3,0l-.21-82a1.5,1.5,0,0,0-3,0Z" style="fill:#fffbb1"/><path d="M369.42,132.83q1.86,43,1.1,86c0,1.93,3,1.93,3,0q.76-43-1.1-86c-.08-1.92-3.08-1.93-3,0Z" style="fill:#fffbb1"/><path d="M277.61,221.77q12.26,15.53,25.33,30.39,6.85,7.77,13.93,15.34c2.24,2.4,5.35,7.34,9.29,6.31,3.66-1,6.4-6.24,8.47-9.09,3.87-5.33,7.81-10.59,12-15.64a240.15,240.15,0,0,1,26.63-27c1.46-1.27-.67-3.38-2.12-2.12A241,241,0,0,0,348,243q-5,5.7-9.65,11.72c-3.22,4.17-6.13,10.2-10.15,13.59-3.53,3-5.91.64-8.57-2.2q-2.9-3.09-5.76-6.22-5.72-6.25-11.3-12.64-11.77-13.49-22.85-27.56c-1.2-1.51-3.31.62-2.12,2.12Z" style="fill:#fffbb1"/><path d="M309.66,257.68a20.15,20.15,0,0,1,26-1c1.5,1.19,3.63-.92,2.12-2.12a23.21,23.21,0,0,0-30.19,1c-1.42,1.31.7,3.43,2.12,2.12Z" style="fill:#fffbb1"/><path d="M308.62,224.65a81.17,81.17,0,0,1,14.49-27l-2.36-.3a173.83,173.83,0,0,0,15.56,28,1.52,1.52,0,0,0,2.74-.36q5.93-16.48,10.59-33.37l-2.74.36a270.2,270.2,0,0,0,23.4,29.25c1.31,1.42,3.43-.7,2.12-2.12a264.62,264.62,0,0,1-22.93-28.64,1.52,1.52,0,0,0-2.74.36q-4.66,16.88-10.59,33.37l2.74-.36a173.83,173.83,0,0,1-15.56-28,1.51,1.51,0,0,0-2.36-.3,85.1,85.1,0,0,0-15.26,28.28c-.58,1.85,2.31,2.64,2.89.8Z" style="fill:#fffbb1"/><path d="M307.55,223.3a265.13,265.13,0,0,1-17.1-30c-.62-1.27-2.33-.74-2.74.36q-5,13.44-8.93,27.23a1.5,1.5,0,0,0,2.89.8q3.91-13.8,8.93-27.23l-2.74.36a265.13,265.13,0,0,0,17.1,30c1.06,1.6,3.66.1,2.59-1.51Z" style="fill:#fffbb1"/><path d="M371.77,171.06c3.35,2.57,6.75-.51,7.36-4,.57-3.3-1.1-7-.34-10.2,2.13-9,12.32-1.93,14.93,2.23,4.13,6.6,3.92,17.44,1.7,24.71-3,9.9-12.52,10.4-21.28,10.05-1.93-.08-1.93,2.92,0,3,7.68.3,16.63.13,21.57-6.75,4.79-6.68,5-17.89,3.3-25.62-1.56-7.19-7.23-14.87-15.32-14.8-2.89,0-6,1.21-7.3,4a8.85,8.85,0,0,0-.57,3.83c0,1.52.17,3.05.25,4.58,0,.79.55,8.94-2.78,6.38-1.53-1.18-3,1.43-1.51,2.59Z" style="fill:#fffbb1"/><path d="M373.55,145.39c9.6-5.58,19.86,1.54,25.55,9.36a37,37,0,0,1,7.07,23.17c-.78,17.21-16.89,31.36-34.21,28.19-1.89-.35-2.7,2.55-.8,2.89,19.86,3.63,38-12.69,38-32.52.07-16.9-17.18-45.3-37.17-33.68a1.5,1.5,0,0,0,1.51,2.59Z" style="fill:#fffbb1"/><path d="M282.64,136.07A7.2,7.2,0,0,0,282,145c2.28,3.43,6.58,4.42,10.4,4.89,8.05,1,19.38-1.49,18.6-11.8-.14-1.91-3.15-1.93-3,0,.49,6.5-5.78,9.06-11.25,9.1-3.14,0-18.32-1.65-12-9,1.25-1.46-.86-3.59-2.12-2.12Z" style="fill:#fffbb1"/><path d="M285.72,87c-3.52,1.07-7.6,3.46-6.06,7.81s7.54,5.32,11.66,4.79a6,6,0,0,0,4.81-7.79c-1.22-4.27-6-5.72-10-5.22-1.89.24-1.91,3.24,0,3,2.11-.27,4.67-.17,6.23,1.51s1.48,4.86-1,5.5c-2.23.56-6.34.12-8-1.53-2.82-2.81,1-4.5,3.21-5.18,1.84-.56,1.06-3.46-.8-2.89Z" style="fill:#fffbb1"/><path d="M304.82,70c-2.82-.36-4.31,3.1-3.34,5.39,1.26,3,5.57,3.41,8.38,3.2,3.06-.23,5.52-2.73,4.07-5.86-1.74-3.73-6-3.28-9.32-2.38a1.5,1.5,0,0,0,.8,2.89c1.55-.42,3.86-1.21,5.25,0s.21,2.32-1.28,2.38a10.17,10.17,0,0,1-3.82-.44c-.63-.24-1.34-.57-1.39-1.32,0-.55.15-.92.66-.86,1.91.25,1.89-2.76,0-3Z" style="fill:#fffbb1"/><path d="M290.28,196.14V175.47a1.5,1.5,0,0,0-3,0v20.67a1.5,1.5,0,0,0,3,0Z" style="fill:#fffbb1"/><path d="M320.62,158.8v38.67a1.5,1.5,0,0,0,3,0V158.8a1.5,1.5,0,0,0-3,0Z" style="fill:#fffbb1"/><path d="M349.62,191.47V170.8a1.5,1.5,0,0,0-3,0v20.67a1.5,1.5,0,0,0,3,0Z" style="fill:#fffbb1"/><path d="M150.87,271.2a138.53,138.53,0,0,0-11.64,23.62c-.69,1.81,2.21,2.59,2.89.8a134.31,134.31,0,0,1,11.34-22.9c1-1.65-1.58-3.16-2.59-1.51Z" style="fill:#fffbb1"/><path d="M147.15,276.6c-31.19-6.7-66,4.84-85.21,30.8-9.13,12.32-14.12,28.44-8.65,43.34s18.44,22.73,34,21.79c19.26-1.16,37.87-9.65,52.47-22,1.47-1.25-.66-3.36-2.12-2.12-19.83,16.81-65.73,36.42-80.58,3.78C43.65,322.6,73.42,293.32,98.7,283.42a83.08,83.08,0,0,1,47.66-3.93c1.88.4,2.69-2.49.8-2.89Z" style="fill:#fffbb1"/><path d="M156.92,336.13c20.56,2.83,41.1.75,61.63-1.29,21.17-2.11,42.14-3,63.35-1,1.92.18,1.91-2.82,0-3-20.55-2-40.89-1.2-61.4.82-20.86,2.06-41.87,4.48-62.78,1.59-1.89-.26-2.7,2.63-.8,2.89Z" style="fill:#fffbb1"/><path d="M354.45,278.57l34-1.24c1.92-.07,1.93-3.07,0-3l-34,1.24c-1.92.07-1.93,3.07,0,3Z" style="fill:#fffbb1"/><path d="M367.23,274.18a106.79,106.79,0,0,0,7.8,52.95c6.1,14.32,15.61,26.93,32.1,28.74,6.86.75,14.71-.44,20.35-4.67,5.25-3.94,7.33-10.17,8.06-16.47,1.07-9.21.31-18.8,0-28q-.52-15.33-1.73-30.63c-.15-1.91-3.15-1.93-3,0,1.29,16.56,2.09,33.19,2.11,49.8,0,7-.07,15.35-5,20.93s-14.1,7-21.29,6c-16.83-2.29-25.46-17.12-30.77-31.77a105,105,0,0,1-5.59-46.83c.2-1.92-2.8-1.9-3,0Z" style="fill:#fffbb1"/><path d="M416.76,275.22a145.57,145.57,0,0,1,44.74-3.14c1.92.16,1.91-2.84,0-3A148.3,148.3,0,0,0,416,272.33c-1.88.43-1.09,3.32.8,2.89Z" style="fill:#fffbb1"/><path d="M445.84,314.55c13.32,2,26.61,1,40,0,14.67-1.12,29.36-1.79,44.08-1.89a609.74,609.74,0,0,1,88.87,6c.73.1,1.71-.17,1.85-1a6.06,6.06,0,0,0-2-6.14c-1.42-1.3-3.55.82-2.12,2.12l1.25,3.22,1.85-1a615.51,615.51,0,0,0-85.73-6.1q-21.65,0-43.26,1.54c-14.63,1-29.31,2.63-43.92.49-1.89-.28-2.7,2.61-.8,2.89Z" style="fill:#fffbb1"/><path d="M37.83,318.78a155.24,155.24,0,0,0-36.37-2c-1.92.12-1.93,3.12,0,3A151.79,151.79,0,0,1,37,321.68c1.89.33,2.7-2.56.8-2.89Z" style="fill:#fffbb1"/><path d="M27.45,336.64h-26a1.5,1.5,0,0,0,0,3h26a1.5,1.5,0,0,0,0-3Z" style="fill:#fffbb1"/><path d="M648.43,309.53a29.85,29.85,0,0,1-10.68-.47c-1.88-.43-2.68,2.46-.8,2.89a32.13,32.13,0,0,0,11.47.58c1.89-.25,1.91-3.25,0-3Z" style="fill:#fffbb1"/><path d="M637.47,311.92l32-2.31c1.91-.14,1.93-3.14,0-3l-32,2.31c-1.91.14-1.93,3.14,0,3Z" style="fill:#fffbb1"/><path d="M636,328.13c-.44,3.76,4.49,3.53,6.95,3.53l22.52,0a1.5,1.5,0,0,0,0-3c-2.15,0-26.52,0-26.47-.49.23-1.91-2.78-1.9-3,0Z" style="fill:#fffbb1"/><path d="M146.18,384.22a281.49,281.49,0,0,0,12.41,57.12c.6,1.83,3.5,1,2.89-.8a277.69,277.69,0,0,1-12.3-56.32c-.21-1.9-3.21-1.92-3,0Z" style="fill:#fffbb1"/><path d="M150.24,382.76c5-8.46,18.2,8.29,21.14,12.35,4.27,5.9,7.36,12.72,7.56,20.09s-2.41,15-8.69,19.09c-5.94,3.91-13.62,4.14-19.33-.22-1.53-1.17-3,1.43-1.51,2.59,6.88,5.25,16.63,4.54,23.44-.54,7.31-5.45,9.89-15.12,8.87-23.86-1.21-10.32-7.27-19.17-14.37-26.45-4.57-4.69-14.46-13.5-19.7-4.57a1.5,1.5,0,0,0,2.59,1.51Z" style="fill:#fffbb1"/><path d="M186.12,405.5a154.75,154.75,0,0,0,8.68,22.92c.71,1.52,3.38.43,2.74-1.16A51.13,51.13,0,0,1,193.92,413c-.25-2.6-1.21-8.12,3.29-8.55,2.93-.28,5.33,2.89,7,4.8,1.28,1.45,3.4-.68,2.12-2.12-3.23-3.64-9.84-8.8-14.25-3.52-2.24,2.68-1.44,7.12-1.1,10.27a53.48,53.48,0,0,0,3.65,14.18l2.74-1.16A149.85,149.85,0,0,1,189,404.7a1.5,1.5,0,0,0-2.89.8Z" style="fill:#fffbb1"/><path d="M208.61,404.41l5.33,26.12a1.51,1.51,0,0,0,2.2.9,5.2,5.2,0,0,0,2.65-3.83c.37-1.89-2.52-2.69-2.89-.8l-1.27,2,2.2.9-5.33-26.12c-.39-1.89-3.28-1.09-2.89.8Z" style="fill:#fffbb1"/><path d="M219.56,404.17a102.09,102.09,0,0,0,4.75,23c.51,1.53,3.05,1.37,2.95-.4l-.75-12.66c-.16-2.67-2.43-13.63,4-9.64,6,3.76,8.49,14.19,8.58,20.64a1.5,1.5,0,0,0,3,0,32.87,32.87,0,0,0-3.82-15.24c-1.83-3.4-5.66-9.77-10-10.26-3.18-.36-4.67,2.55-5.09,5.25-1.08,6.84.63,15,1,21.9l2.95-.4a98.6,98.6,0,0,1-4.64-22.22c-.17-1.91-3.17-1.93-3,0Z" style="fill:#fffbb1"/><path d="M244.48,389.09a124.93,124.93,0,0,0,8.16,34.21c.5,1.27,2.52,1.57,2.89,0a104,104,0,0,1,9.81-25.62c.92-1.7-1.67-3.21-2.59-1.51a107.15,107.15,0,0,0-10.11,26.33h2.89a122.1,122.1,0,0,1-8-33.41c-.18-1.91-3.18-1.92-3,0Z" style="fill:#fffbb1"/><path d="M258,412.61a58.16,58.16,0,0,0,21.14,12.73c1.83.63,2.62-2.27.8-2.89a54.48,54.48,0,0,1-19.81-12c-1.41-1.32-3.53.8-2.12,2.12Z" style="fill:#fffbb1"/><path d="M314.09,400.7c1.06-1.7,2.16-3.68,3.9-4.77,2.74-1.72,6.33-.42,4.83,3-1,2.39-3.65,3.95-4.85,6.35-.53,1.06.37,2.7,1.69,2.2,2.71-1,6.22-1.63,8.08,1.08,2.57,3.75-1.7,6.1-5.06,6.33a14,14,0,0,1-11.74-5.28c-1.23-1.49-3.34.64-2.12,2.12,4.56,5.51,16.55,9.73,21.89,2.73,1.83-2.4,1.34-5.8-.5-8-2.8-3.44-7.56-3.24-11.34-1.82l1.69,2.2c1.9-3.77,9.41-8.73,4.15-13.25s-10.6,1.43-13.21,5.61c-1,1.64,1.57,3.15,2.59,1.51Z" style="fill:#fffbb1"/><path d="M364.54,388.16l11.8,27.66c.76,1.77,3.34.24,2.59-1.51l-11.8-27.66c-.76-1.77-3.34-.24-2.59,1.51Z" style="fill:#fffbb1"/><path d="M365.91,386c.62-7.94,9.62-10.84,15.94-7.28,5.92,3.34,8.65,9.8,9.29,16.33.49,5,.3,11.43-3.26,15.34-5,5.44-12.62,3.2-17.88-.45-1.59-1.1-3.09,1.5-1.51,2.59,6.15,4.28,15.15,6.39,21,.47,5.7-5.73,5.62-15.85,3.74-23.16-1.92-7.46-7.43-14.51-15.47-15.61A13,13,0,0,0,362.91,386c-.15,1.93,2.85,1.92,3,0Z" style="fill:#fffbb1"/><path d="M398.47,395.66l3.79,15.52L405,410c-2.58-5.07-4.45-10.89-4.37-16.65.06-4,3.9-7,7.66-4.61,2.42,1.51,3.88,4.32,5.23,6.72a1.5,1.5,0,0,0,2.59-1.51c-2.9-5.13-9.95-13.42-16.25-7.35-5.9,5.68-.42,19.07,2.55,24.91.79,1.55,3.13.45,2.74-1.16l-3.79-15.52c-.46-1.87-3.35-1.08-2.89.8Z" style="fill:#fffbb1"/><path d="M420,390.48c-4.22,4-11.08,14.19-2.4,17.94,8.43,3.65,11.2-7.83,11-13.56l-2.8.76a44.26,44.26,0,0,0,19.76,18.1c1.74.81,3.26-1.77,1.51-2.59a41.41,41.41,0,0,1-18.68-17,1.51,1.51,0,0,0-2.8.76,22.78,22.78,0,0,1-.27,5.61c-.6,2.64-4.53,8.76-8.23,3.64-2.92-4,2.35-9,5-11.5,1.41-1.33-.72-3.45-2.12-2.12Z" style="fill:#fffbb1"/><path d="M443.93,390.12a33.61,33.61,0,0,0,2.58,13.61c1.14,2.67,2.88,6.8,6,7.62,7.11,1.84,5.63-13.8,5.28-17.23l-2.95.4c1.91,6.93,14.31,28.13,23.45,17.83,3.43-3.86,3-10.19,1.93-14.84-.87-3.71-3.49-11.66-8-12.2a1.46,1.46,0,0,0-1.3.74,2.14,2.14,0,0,0,0,2.28,1.45,1.45,0,0,0,1.3.74l.32,0c1.92-.13,1.93-3.13,0-3-1.74.12,2,5.24,2.4,6a23.55,23.55,0,0,1,2.25,5.49c1,3.55,1.62,8.72-.63,11.93-6.57,9.4-17.53-11.17-18.79-15.75-.43-1.57-3.12-1.33-2.95.4a44.83,44.83,0,0,1,.25,6.82c-.12,2.38-.13,9.06-3.51,5.77-3.83-3.72-4.65-11.64-4.61-16.59a1.5,1.5,0,0,0-3,0Z" style="fill:#fffbb1"/><path d="M219.22,443c62.45-7.76,125.7,12,187.66-2.38,1.88-.44,1.08-3.33-.8-2.89C344.42,452,281.4,432.23,219.22,440c-1.89.24-1.91,3.24,0,3Z" style="fill:#fffbb1"/><path d="M317.45,461.59a74.14,74.14,0,0,1,21.61,3,1.5,1.5,0,0,0,.8-2.89,76.89,76.89,0,0,0-22.41-3.06,1.5,1.5,0,0,0,0,3Z" style="fill:#fffbb1"/><path d="M56.53,257.77c73.21-2.53,146.42-5.05,219.64-7.09s146.45-3.57,219.69-4.11q30.46-.23,60.93-.21c19.57,0,40.09-1.24,58.59,6.25,1.79.72,2.57-2.18.8-2.89-15.4-6.23-32-6.3-48.4-6.34q-27.47-.06-54.93.09-55.43.29-110.85,1.31c-73.57,1.31-147.12,3.4-220.67,5.78q-62.4,2-124.79,4.22c-1.93.07-1.93,3.07,0,3Z" style="fill:#fffbb1"/><path d="M38.42,232.92C49.78,125.55,150.88,59.4,243.29,24.33,295.38,4.56,351.66-5.17,405.64,13c26.16,8.82,50.46,22.21,74.73,35.17,22.31,11.9,44.64,23.95,65.38,38.48,45.62,32,87.11,83.92,76.67,143.17-.33,1.89,2.56,2.7,2.89.8,8.93-50.72-20-98.81-57.39-130.65-20.22-17.21-43.08-31-66.29-43.72-24.95-13.72-50.06-27.78-76.3-38.9C400,6.61,373.45.07,345.79,0c-28-.07-55.87,5.62-82.5,14.14A507.86,507.86,0,0,0,187.4,45.92c-24,12.26-47,26.5-67.91,43.57-43.9,35.9-78,86-84.07,143.43-.2,1.92,2.8,1.9,3,0Z" style="fill:#fffbb1"/><path d="M131,92A1107.6,1107.6,0,0,1,260.64,195c1.42,1.31,3.54-.81,2.12-2.12A1112.82,1112.82,0,0,0,132.49,89.42c-1.6-1.09-3.1,1.51-1.51,2.59Z" style="fill:#fffbb1"/><path d="M328,5.14a606.42,606.42,0,0,0,2.76,67c.18,1.9,3.19,1.92,3,0a606.42,606.42,0,0,1-2.76-67,1.5,1.5,0,0,0-3,0Z" style="fill:#fffbb1"/><path d="M388.89,220.58l140-142c1.36-1.38-.76-3.5-2.12-2.12l-140,142c-1.36,1.38.76,3.5,2.12,2.12Z" style="fill:#fffbb1"/><path d="M173.95,249.14v1a1.5,1.5,0,0,0,3,0v-1a1.5,1.5,0,0,0-3,0Z" style="fill:#fffbb1"/></svg>