<svg id="Layer_2" data-name="Layer 2" xmlns="http://www.w3.org/2000/svg" viewBox="0 0 163.49 77.56"><title>drink-01</title><path id="underscore" d="M3.48,67.56s5,10,25,8c20-3,86.5-9.5,93.5-8.5s14,3,17,9" style="fill:none;stroke:#f0f;stroke-linecap:round;stroke-linejoin:round;stroke-width:3px"/><path id="drink" d="M125,59.06l16-39s2-6-4-11-30-3-30-3-73,9-77,9c0,0-24,1-16-9,10-10,30-2,25,9,0,0-3.22,5.81-6,11L22.5,47S18,57.06,8,57.06c-9,0-7-12-7-12a22.9,22.9,0,0,1,13-15c4.81-2.19,7.9-1.31,9.86.36,2.46,2.11,2.53,5.47,1.79,8.63-1.65,7-4.9,16.51-2.65,18,1.66,1.11,4,1,8-1,9.34-3.11,21-31,22-35s-2-1-2-1-4,5-1,7a87.9,87.9,0,0,0,10,5s5,2,0,9c0,0-12,21,3,14,15-13,19-24,19-24s1.5-4.5-2,0-9.5,16.5-8,22,5.5,4.5,9,0,13-19,13-19,11.5-10.5,9,2a49.47,49.47,0,0,1-10,21s-2.5.5,3-7,15.5-24.5,21-18-4,19-4,19-2.5,5.5,1,7,10-6,10-6,18.5-27.5,27-20-11.5,18.5-21,16c-4.5-.5,3.5-2.5,8,2s24.5,13.5,24,1c-1-5-3-7-3-7" style="fill:none;stroke:#f0f;stroke-linecap:round;stroke-linejoin:round;stroke-width:3px"/></svg>