<svg id="Layer_2" data-name="Layer 2" xmlns="http://www.w3.org/2000/svg" viewBox="0 0 166.75 77.56"><title>drink-01</title><path id="underscore" d="M3.48,67.56s5,10,25,8c20-3,86.5-9.5,93.5-8.5s14,3,17,9" transform="translate(3.26 0)" style="fill:none;stroke:#f0f;stroke-linecap:round;stroke-linejoin:round;stroke-width:3px"/><path id="drink" d="M159,44.06s2,2,3,7c.5,12.5-19.5,3.5-24-1s-12.5-2.5-8-2c9.5,2.5,29.5-8.5,21-16s-27,20-27,20-6.5,7.5-10,6-1-7-1-7,9.5-12.5,4-19-15.5,10.5-21,18-3,7-3,7a49.47,49.47,0,0,0,10-21c2.5-12.5-9-2-9-2s-9.5,14.5-13,19-7.5,5.5-9,0,4.5-17.5,8-22,2,0,2,0-4,11-19,24c-15,7-3-14-3-14,5-7,0-9,0-9a87.9,87.9,0,0,1-10-5c-3-2,1-7,1-7s3-3,2,1-12.66,31.89-22,35c-4,2-6.34,2.11-8,1-2.25-1.5,1-11,2.65-18,.74-3.15.67-6.52-1.79-8.63-2-1.68-5-2.55-9.86-.36,0,0-10,4-14,13s-1,14,8,14c10,0,14.52-10,14.52-10L33,26.06c2.78-5.19,6-11,6-11,5-11-15-19-25-9-8,10,16,9,16,9,4,0,77-9,77-9s24-2,30,3,4,11,4,11l-16,39" transform="translate(3.26 0)" style="fill:none;stroke:#f0f;stroke-linecap:round;stroke-linejoin:round;stroke-width:3px"/></svg>